<?xml version="1.0" encoding="UTF-8"?>
<svg version="1.1" xmlns="http://www.w3.org/2000/svg" width="151" height="151">
<path d="M0 0 C1.1735051 -0.00860046 2.34701019 -0.01720093 3.55607605 -0.02606201 C5.49716248 -0.03245193 5.49716248 -0.03245193 7.47746277 -0.03897095 C8.84894011 -0.04687133 10.22041537 -0.05514024 11.59188843 -0.06375122 C16.10214755 -0.08997793 20.61241599 -0.10527911 25.12272644 -0.11953735 C26.67473036 -0.1248967 28.22673422 -0.1302742 29.77873802 -0.13566971 C36.23401618 -0.15729905 42.68929182 -0.17603627 49.14459705 -0.1872921 C58.39937805 -0.20353481 67.65373942 -0.23671929 76.90836221 -0.29369295 C83.41373479 -0.33237777 89.91899507 -0.35192301 96.42447966 -0.35721266 C100.31092581 -0.36086808 104.19692448 -0.37290863 108.08324623 -0.4053154 C111.74005186 -0.43537113 115.3961387 -0.44171742 119.05304146 -0.42993164 C121.03333889 -0.4296054 123.0135918 -0.45408766 124.99372864 -0.47930908 C129.85966303 -0.4450634 133.41919466 -0.39417882 137.77546692 1.86038208 C140.54454563 7.21649845 140.16368591 12.49332351 140.10929871 18.4336853 C140.11443953 19.79900542 140.12172204 21.16431891 140.13098145 22.52961731 C140.14948016 26.23006837 140.13656875 29.92979805 140.11689115 33.63021898 C140.10049695 37.50322327 140.10931829 41.37618216 140.1144104 45.24920654 C140.11892944 51.75075805 140.10307084 58.25202167 140.07511902 64.75350952 C140.04304079 72.27282349 140.04309373 79.79161904 140.06033379 87.31096995 C140.07618767 94.54426687 140.06947449 101.7773735 140.05239677 109.01066208 C140.04551981 112.08959384 140.04656516 115.16837336 140.05394173 118.24730301 C140.06159353 121.87051393 140.0495158 125.49313338 140.02209282 129.11624336 C140.01190369 131.08249177 140.02140193 133.04881112 140.03141785 135.01506042 C140.01233116 136.76475883 140.01233116 136.76475883 139.99285889 138.54980469 C139.99005197 139.56557901 139.98724504 140.58135334 139.98435307 141.62790871 C139.47819519 144.15390015 139.47819519 144.15390015 137.81371212 145.97992611 C134.8979172 147.44558345 132.8577958 147.53399867 129.59526062 147.5415802 C127.79084755 147.55643715 127.79084755 147.55643715 125.94998169 147.57159424 C124.63349136 147.56709259 123.31700104 147.56259094 121.96061707 147.55795288 C120.55766251 147.56365622 119.15471261 147.57062034 117.75177002 147.57875061 C113.94394164 147.59670012 110.13634347 147.5955105 106.32848549 147.58980823 C103.14991007 147.58671936 99.97137906 147.59280536 96.79280996 147.59884697 C89.29515995 147.61289608 81.79762388 147.61132736 74.29997253 147.59994507 C66.56317086 147.58845933 58.82671564 147.60254609 51.08995962 147.62934154 C44.44780837 147.65148521 37.80576597 147.65813908 31.16358042 147.65226513 C27.19625966 147.64889161 23.22916108 147.65133673 19.26187134 147.66851616 C15.53202228 147.68396252 11.80268738 147.6800561 8.07285881 147.66121101 C6.0507007 147.65575727 4.02851963 147.67005614 2.00640869 147.68490601 C0.80346664 147.67507187 -0.3994754 147.66523773 -1.63887024 147.65510559 C-2.68451897 147.65489631 -3.73016769 147.65468702 -4.80750275 147.6544714 C-8.29979276 147.01042371 -9.46230329 146.02386087 -11.52180481 143.15390015 C-12.02516937 140.5545063 -12.02516937 140.5545063 -12.02973938 137.5501709 C-12.04101868 136.40901825 -12.05229797 135.2678656 -12.06391907 134.09213257 C-12.05582214 132.8442395 -12.04772522 131.59634644 -12.03938293 130.31063843 C-12.04639221 128.99320648 -12.05340149 127.67577454 -12.06062317 126.31842041 C-12.07885803 122.70664965 -12.07178775 119.09533597 -12.05910683 115.48355722 C-12.04897562 111.70136698 -12.05837322 107.91921572 -12.06465149 104.13702393 C-12.07192936 97.7833657 -12.06233853 91.42989342 -12.04328918 85.07626343 C-12.02153873 77.73710643 -12.02855767 70.39839423 -12.05059481 63.05924809 C-12.06876733 56.75420398 -12.07129757 50.44929353 -12.06084013 44.14423168 C-12.0546129 40.380302 -12.05374777 36.6165811 -12.06698608 32.85266495 C-12.07857045 29.31155547 -12.07047261 25.77101704 -12.04740906 22.22996902 C-12.03962531 20.31556221 -12.05145722 18.40110693 -12.06391907 16.48672485 C-12.00151324 10.14177921 -11.95183296 5.90352447 -7.52180481 1.15390015 C-4.89665483 -0.15867484 -2.94104895 0.0160032 0 0 Z " fill="#34C2FE" transform="translate(11.521804809570313,1.846099853515625)"/>
<path d="M0 0 C1.14707428 -0.00137466 2.29414856 -0.00274933 3.47598267 -0.00416565 C4.74049255 -0.00057037 6.00500244 0.0030249 7.30783081 0.00672913 C8.64801023 0.00701109 9.98818981 0.00685309 11.32836914 0.00628662 C14.97277603 0.005999 18.6171502 0.01189001 22.26154947 0.01886058 C26.06789898 0.02510001 29.87424919 0.02569838 33.68060303 0.02688599 C40.89123462 0.02999756 48.10185111 0.03820861 55.31247604 0.04823548 C63.52034482 0.059402 71.72821432 0.06490843 79.9360888 0.06993091 C96.82286963 0.08039136 113.70963573 0.09798745 130.59640503 0.12025452 C130.26640503 2.43025452 129.93640503 4.74025452 129.59640503 7.12025452 C128.93640503 7.12025452 128.27640503 7.12025452 127.59640503 7.12025452 C128.58640503 9.10025452 128.58640503 9.10025452 129.59640503 11.12025452 C128.60640503 11.45025452 127.61640503 11.78025452 126.59640503 12.12025452 C126.92640503 14.43025452 127.25640503 16.74025452 127.59640503 19.12025452 C126.60640503 19.12025452 125.61640503 19.12025452 124.59640503 19.12025452 C124.92640503 20.11025452 125.25640503 21.10025452 125.59640503 22.12025452 C124.85583862 22.6829303 124.85583862 22.6829303 124.10031128 23.25697327 C119.96726748 26.44875232 119.96726748 26.44875232 117.65890503 30.99525452 C117.63828003 31.69650452 117.61765503 32.39775452 117.59640503 33.12025452 C114.59640503 32.12025452 114.59640503 32.12025452 113.15890503 30.49525452 C112.64328003 30.04150452 112.12765503 29.58775452 111.59640503 29.12025452 C109.60213144 29.30579343 109.60213144 29.30579343 107.59640503 30.12025452 C103.99529487 31.32062457 101.29508948 30.87680361 97.59640503 30.12025452 C97.14265503 30.94525452 96.68890503 31.77025452 96.22140503 32.62025452 C95.68515503 33.44525452 95.14890503 34.27025452 94.59640503 35.12025452 C93.93640503 35.12025452 93.27640503 35.12025452 92.59640503 35.12025452 C92.92640503 33.80025452 93.25640503 32.48025452 93.59640503 31.12025452 C91.61640503 31.78025452 89.63640503 32.44025452 87.59640503 33.12025452 C87.92640503 31.14025452 88.25640503 29.16025452 88.59640503 27.12025452 C87.60640503 27.12025452 86.61640503 27.12025452 85.59640503 27.12025452 C85.59640503 27.78025452 85.59640503 28.44025452 85.59640503 29.12025452 C84.11140503 29.61525452 84.11140503 29.61525452 82.59640503 30.12025452 C81.60640503 28.47025452 80.61640503 26.82025452 79.59640503 25.12025452 C78.45171753 26.35775452 78.45171753 26.35775452 77.28390503 27.62025452 C74.59640503 30.12025452 74.59640503 30.12025452 71.59640503 30.12025452 C71.59640503 31.11025452 71.59640503 32.10025452 71.59640503 33.12025452 C73.08140503 33.61525452 73.08140503 33.61525452 74.59640503 34.12025452 C74.26640503 36.76025452 73.93640503 39.40025452 73.59640503 42.12025452 C72.60640503 42.12025452 71.61640503 42.12025452 70.59640503 42.12025452 C70.10140503 43.11025452 70.10140503 43.11025452 69.59640503 44.12025452 C69.59640503 43.46025452 69.59640503 42.80025452 69.59640503 42.12025452 C68.93640503 42.12025452 68.27640503 42.12025452 67.59640503 42.12025452 C67.87484253 43.26494202 67.87484253 43.26494202 68.15890503 44.43275452 C68.59640503 47.12025452 68.59640503 47.12025452 67.59640503 50.12025452 C66.60640503 50.78025452 65.61640503 51.44025452 64.59640503 52.12025452 C67.52465155 53.09633669 69.55253778 53.2025212 72.59640503 53.12025452 C72.26640503 54.44025452 71.93640503 55.76025452 71.59640503 57.12025452 C70.99828003 56.93462952 70.40015503 56.74900452 69.78390503 56.55775452 C67.43231741 55.89931765 67.43231741 55.89931765 64.59640503 57.12025452 C64.59640503 56.46025452 64.59640503 55.80025452 64.59640503 55.12025452 C63.11140503 55.61525452 63.11140503 55.61525452 61.59640503 56.12025452 C58.90890503 55.18275452 58.90890503 55.18275452 56.59640503 54.12025452 C57.20918115 51.15850329 57.85013025 49.73966669 59.59640503 47.12025452 C60.25640503 47.12025452 60.91640503 47.12025452 61.59640503 47.12025452 C60.64706604 43.76592342 59.69891668 40.42778946 58.59640503 37.12025452 C57.60640503 38.11025452 56.61640503 39.10025452 55.59640503 40.12025452 C55.92640503 40.78025452 56.25640503 41.44025452 56.59640503 42.12025452 C54.72140503 42.74525452 54.72140503 42.74525452 52.59640503 43.12025452 C51.93640503 42.46025452 51.27640503 41.80025452 50.59640503 41.12025452 C48.61640503 43.59525452 48.61640503 43.59525452 46.59640503 46.12025452 C47.58640503 47.44025452 48.57640503 48.76025452 49.59640503 50.12025452 C49.10140503 51.11025452 49.10140503 51.11025452 48.59640503 52.12025452 C47.27640503 51.79025452 45.95640503 51.46025452 44.59640503 51.12025452 C44.59640503 51.78025452 44.59640503 52.44025452 44.59640503 53.12025452 C42.61640503 53.78025452 40.63640503 54.44025452 38.59640503 55.12025452 C38.59640503 54.46025452 38.59640503 53.80025452 38.59640503 53.12025452 C37.60640503 52.62525452 37.60640503 52.62525452 36.59640503 52.12025452 C36.92640503 51.13025452 37.25640503 50.14025452 37.59640503 49.12025452 C37.50371998 47.05406702 37.50371998 47.05406702 37.15890503 44.93275452 C36.97328003 43.67462952 36.78765503 42.41650452 36.59640503 41.12025452 C35.27640503 40.79025452 33.95640503 40.46025452 32.59640503 40.12025452 C32.92640503 41.11025452 33.25640503 42.10025452 33.59640503 43.12025452 C32.15890503 45.30775452 32.15890503 45.30775452 30.59640503 47.12025452 C29.60640503 46.79025452 28.61640503 46.46025452 27.59640503 46.12025452 C26.90890503 44.05775452 26.90890503 44.05775452 26.59640503 42.12025452 C25.27640503 43.44025452 23.95640503 44.76025452 22.59640503 46.12025452 C22.92640503 47.11025452 23.25640503 48.10025452 23.59640503 49.12025452 C22.93640503 49.12025452 22.27640503 49.12025452 21.59640503 49.12025452 C21.59640503 49.78025452 21.59640503 50.44025452 21.59640503 51.12025452 C20.11140503 51.61525452 20.11140503 51.61525452 18.59640503 52.12025452 C18.59640503 51.46025452 18.59640503 50.80025452 18.59640503 50.12025452 C17.11140503 49.62525452 17.11140503 49.62525452 15.59640503 49.12025452 C15.59640503 47.80025452 15.59640503 46.48025452 15.59640503 45.12025452 C14.81265503 45.45025452 14.02890503 45.78025452 13.22140503 46.12025452 C10.59640503 47.12025452 10.59640503 47.12025452 8.59640503 47.12025452 C8.10140503 46.62525452 8.10140503 46.62525452 7.59640503 46.12025452 C6.60640503 46.61525452 6.60640503 46.61525452 5.59640503 47.12025452 C5.26640503 46.46025452 4.93640503 45.80025452 4.59640503 45.12025452 C3.27640503 45.12025452 1.95640503 45.12025452 0.59640503 45.12025452 C0.26640503 43.14025452 -0.06359497 41.16025452 -0.40359497 39.12025452 C-1.72359497 39.12025452 -3.04359497 39.12025452 -4.40359497 39.12025452 C-5.39359497 38.46025452 -6.38359497 37.80025452 -7.40359497 37.12025452 C-8.72359497 37.78025452 -10.04359497 38.44025452 -11.40359497 39.12025452 C-11.50291773 34.67288709 -11.575275 30.22611739 -11.62332153 25.77796936 C-11.64336288 24.26678716 -11.67060402 22.75568179 -11.70535278 21.24476624 C-11.75420606 19.06504809 -11.77663721 16.88636021 -11.79421997 14.70619202 C-11.81516724 13.39698792 -11.8361145 12.08778381 -11.85769653 10.73890686 C-11.32882658 6.52443887 -10.05899514 4.39228527 -7.40359497 1.12025452 C-4.80104236 -0.18102179 -2.91539678 -0.00268453 0 0 Z M77.59640503 19.12025452 C77.92640503 20.11025452 78.25640503 21.10025452 78.59640503 22.12025452 C80.24640503 22.45025452 81.89640503 22.78025452 83.59640503 23.12025452 C82.30172826 21.06034974 82.30172826 21.06034974 80.59640503 19.12025452 C79.60640503 19.12025452 78.61640503 19.12025452 77.59640503 19.12025452 Z " fill="#18B9FD" transform="translate(11.403594970703125,1.8797454833984375)"/>
<path d="M0 0 C1.14726562 0.01353516 2.29453125 0.02707031 3.4765625 0.04101562 C6.27654958 0.07601546 9.07551217 0.12511141 11.875 0.1875 C11.99091764 4.29143012 12.06215601 8.39494106 12.125 12.5 C12.15851563 13.66724609 12.19203125 14.83449219 12.2265625 16.03710938 C12.23945313 17.15537109 12.25234375 18.27363281 12.265625 19.42578125 C12.28657227 20.45743408 12.30751953 21.48908691 12.32910156 22.55200195 C11.875 25.1875 11.875 25.1875 10.21430206 26.82798862 C7.27907401 28.53382901 5.37925223 28.56730885 1.99206543 28.57518005 C0.78912338 28.58508469 -0.41381866 28.59498932 -1.6532135 28.60519409 C-2.96970383 28.60069244 -4.28619415 28.5961908 -5.64257812 28.59155273 C-7.04553268 28.59725607 -8.44848259 28.60422019 -9.85142517 28.61235046 C-13.65925355 28.63029997 -17.46685172 28.62911035 -21.2747097 28.62340808 C-24.45328512 28.62031921 -27.63181613 28.62640521 -30.81038523 28.63244683 C-38.30803524 28.64649593 -45.80557131 28.64492721 -53.30322266 28.63354492 C-61.04002433 28.62205918 -68.77647955 28.63614594 -76.51323557 28.6629414 C-83.15538683 28.68508507 -89.79742922 28.69173893 -96.43961477 28.68586498 C-100.40693553 28.68249147 -104.37403411 28.68493658 -108.34132385 28.70211601 C-112.07117291 28.71756237 -115.80050781 28.71365595 -119.53033638 28.69481087 C-121.55249449 28.68935712 -123.57467556 28.70365599 -125.5967865 28.71850586 C-126.79972855 28.70867172 -128.00267059 28.69883759 -129.24206543 28.68870544 C-130.28771416 28.68849616 -131.33336288 28.68828688 -132.41069794 28.68807125 C-135.82492724 28.0584195 -137.01151994 26.88967894 -139.125 24.1875 C-139.57910156 21.71386719 -139.57910156 21.71386719 -139.515625 18.984375 C-139.49628906 17.51484375 -139.49628906 17.51484375 -139.4765625 16.015625 C-139.44304687 14.99984375 -139.40953125 13.9840625 -139.375 12.9375 C-139.35695312 11.90625 -139.33890625 10.875 -139.3203125 9.8125 C-139.27322712 7.26988936 -139.2074805 4.72916838 -139.125 2.1875 C-136.72875977 2.54199219 -136.72875977 2.54199219 -134.125 3.1875 C-132.46484375 5.515625 -132.46484375 5.515625 -131.0625 8.4375 C-130.55460938 9.43007812 -130.04671875 10.42265625 -129.5234375 11.4453125 C-128.83121094 12.80269531 -128.83121094 12.80269531 -128.125 14.1875 C-126.39614902 17.2951106 -126.39614902 17.2951106 -124.125 19.1875 C-120.48317665 20.07805736 -120.48317665 20.07805736 -117.125 20.1875 C-119.12030217 15.64264507 -121.54841417 12.36709814 -124.91796875 8.80078125 C-126.125 7.1875 -126.125 7.1875 -126.125 4.1875 C-122.19308779 3.82369318 -118.86532918 3.84243003 -115.125 5.1875 C-113.06021213 8.1955699 -111.8554272 11.06656225 -110.63671875 14.5 C-110.13785156 15.386875 -109.63898438 16.27375 -109.125 17.1875 C-106.04885008 18.16413235 -106.04885008 18.16413235 -103.125 18.1875 C-103.62 17.115 -104.115 16.0425 -104.625 14.9375 C-106.01153911 11.93333192 -106.125 10.72815105 -106.125 7.1875 C-101.375 6.0625 -101.375 6.0625 -99.125 7.1875 C-96.11141883 7.35723173 -93.11782333 7.47055614 -90.1015625 7.5390625 C-89.20384125 7.56221527 -88.30612 7.58536804 -87.38119507 7.60922241 C-85.47977387 7.65688851 -83.57829031 7.70211932 -81.67675781 7.74511719 C-78.76863609 7.81207094 -75.86094544 7.88989385 -72.953125 7.96875 C-71.10678676 8.01368004 -69.26043285 8.05797186 -67.4140625 8.1015625 C-66.10920395 8.13740952 -66.10920395 8.13740952 -64.77798462 8.17398071 C-63.9638913 8.1908493 -63.14979797 8.2077179 -62.31103516 8.22509766 C-61.59758942 8.24206696 -60.88414368 8.25903625 -60.14907837 8.27651978 C-58.0155522 8.18268644 -56.18885127 7.71582519 -54.125 7.1875 C-51.53126086 7.11851758 -48.96689803 7.09315248 -46.375 7.125 C-45.67761719 7.12951172 -44.98023437 7.13402344 -44.26171875 7.13867188 C-42.54944197 7.1503998 -40.83720967 7.16833347 -39.125 7.1875 C-39.125 6.5275 -39.125 5.8675 -39.125 5.1875 C-38.08601563 5.07792969 -37.04703125 4.96835938 -35.9765625 4.85546875 C-34.56765386 4.69579244 -33.15880267 4.53560856 -31.75 4.375 C-31.07066406 4.30474609 -30.39132813 4.23449219 -29.69140625 4.16210938 C-25.72629687 3.69889566 -22.18628833 2.91986419 -18.40625 1.625 C-12.28538691 -0.303774 -6.36365519 -0.14429218 0 0 Z " fill="#6EE3FE" transform="translate(139.125,120.8125)"/>
<path d="M0 0 C4.74312584 0.61484965 7.06656716 3.14864369 10.375 6.4375 C12.63726218 5.33977784 14.6678732 4.23711308 16.75 2.8125 C19.88806092 1.1687538 21.87797795 1.04894199 25.375 1.4375 C26.035 2.0975 26.695 2.7575 27.375 3.4375 C27 6.5625 27 6.5625 26.375 9.4375 C25.715 9.4375 25.055 9.4375 24.375 9.4375 C24.51668137 10.87541516 24.66351043 12.3128237 24.8125 13.75 C24.89371094 14.55050781 24.97492188 15.35101563 25.05859375 16.17578125 C25.32765693 18.59837179 25.32765693 18.59837179 26.375 21.4375 C27.035 21.4375 27.695 21.4375 28.375 21.4375 C28.5 27.1875 28.5 27.1875 27.375 29.4375 C25.79236123 29.484393 24.20789002 29.47496485 22.625 29.4375 C19.89074123 29.51059249 19.89074123 29.51059249 17.375 30.4375 C14.98731788 33.51413885 13.63908976 36.77163969 12.375 40.4375 C7.59375 39.640625 7.59375 39.640625 5.625 37.8125 C4.00280937 34.73033781 3.7060304 31.88021613 3.375 28.4375 C2.81167969 28.59992188 2.24835937 28.76234375 1.66796875 28.9296875 C-0.72946869 29.46063617 -2.86022125 29.57060671 -5.3125 29.5625 C-6.10011719 29.56507812 -6.88773438 29.56765625 -7.69921875 29.5703125 C-9.625 29.4375 -9.625 29.4375 -10.625 28.4375 C-11.125 25.75 -11.125 25.75 -10.625 22.4375 C-9.0625 21.234375 -9.0625 21.234375 -7.125 20 C-5.06734554 18.61916362 -5.06734554 18.61916362 -3.625 16.4375 C-3.15455566 12.40878571 -3.2299534 8.64066064 -3.4765625 4.60546875 C-3.52554688 3.56003906 -3.57453125 2.51460938 -3.625 1.4375 C-2.625 0.4375 -2.625 0.4375 0 0 Z " fill="#F8FCFF" transform="translate(49.625,61.5625)"/>
<path d="M0 0 C0 6.6 0 13.2 0 20 C-3.46085485 21.15361828 -6.35373427 21.27624697 -10 21.375 C-11.2375 21.42398438 -12.475 21.47296875 -13.75 21.5234375 C-17 21 -17 21 -18.90625 18.69921875 C-20.33779447 15.1663715 -20.54927962 12.77629741 -20 9 C-16.48635436 5.60325939 -12.86236394 3.93090754 -8.3125 2.25 C-7.17425781 1.82203125 -6.03601563 1.3940625 -4.86328125 0.953125 C-2 0 -2 0 0 0 Z " fill="#1068B8" transform="translate(151,101)"/>
<path d="M0 0 C1.65 0 3.3 0 5 0 C4.835 1.010625 4.67 2.02125 4.5 3.0625 C3.37645434 12.22998124 2.08469953 24.36747005 6 33 C7.94501344 35.05823668 9.90784612 36.70371093 12.22265625 38.33203125 C14.46436557 40.43578923 14.66888204 41.99956185 15 45 C11.875 45.4375 11.875 45.4375 8 45 C5.49321635 43.01816633 3.78431014 40.63250394 2 38 C1.60683594 37.43667969 1.21367187 36.87335938 0.80859375 36.29296875 C-4.71807293 27.58489986 -4.96484247 17.01865496 -4 7 C-2.97157555 4.11594012 -1.89935379 2.43354704 0 0 Z " fill="#10B8FD" transform="translate(7,96)"/>
<path d="M0 0 C3.1875 1.6875 3.1875 1.6875 5 4 C5.625 6.5 5.625 6.5 5 9 C2.86099087 11.55301089 1.22869106 12.83737912 -2.125 13.28125 C-6.49878345 13.34035518 -10.71066801 12.87986297 -15 12 C-15.8125 8.8125 -15.8125 8.8125 -16 5 C-12.27257968 -1.25674125 -6.58391397 -1.06606103 0 0 Z " fill="#1169B9" transform="translate(81,117)"/>
<path d="M0 0 C0.6928712 2.85809369 0.99088526 5.23242577 0.875 8.1875 C1.05633902 13.71834015 2.12779962 19.60850317 5.60546875 24.05078125 C7 26 7 26 7 30 C4.1875 30.25 4.1875 30.25 1 30 C-5.01485046 23.58620538 -7.58279768 13.60552548 -7.46875 5.0234375 C-6.41885072 0.49137228 -4.47144872 0 0 0 Z " fill="#10B7FD" transform="translate(29,109)"/>
<path d="M0 0 C1.4540625 0.0309375 1.4540625 0.0309375 2.9375 0.0625 C2.298125 0.31 1.65875 0.5575 1 0.8125 C-1.17488212 1.84758257 -1.17488212 1.84758257 -1.7421875 3.765625 C-2.15178835 6.70276277 -1.75723226 9.14317765 -1.25 12.0625 C-1.07855469 13.09375 -0.90710937 14.125 -0.73046875 15.1875 C-0.12280323 17.80294926 0.69610709 19.71038711 1.9375 22.0625 C2.32040462 24.05360401 2.66354615 26.05350513 2.9375 28.0625 C-0.02371008 28.91630428 -2.6712644 29.19767764 -5.75 29.1875 C-6.53761719 29.19007812 -7.32523438 29.19265625 -8.13671875 29.1953125 C-10.0625 29.0625 -10.0625 29.0625 -11.0625 28.0625 C-11.5625 25.375 -11.5625 25.375 -11.0625 22.0625 C-9.5 20.859375 -9.5 20.859375 -7.5625 19.625 C-5.50484554 18.24416362 -5.50484554 18.24416362 -4.0625 16.0625 C-3.59205566 12.03378571 -3.6674534 8.26566064 -3.9140625 4.23046875 C-3.96304688 3.18503906 -4.01203125 2.13960938 -4.0625 1.0625 C-3.0625 0.0625 -3.0625 0.0625 0 0 Z " fill="#D9F4FF" transform="translate(50.0625,61.9375)"/>
<path d="M0 0 C2.72869407 0.03287583 5.2966618 0.56397771 8 1 C9.39737627 4.75544871 10.55917108 7.97396822 10 12 C7 14 7 14 5.0625 13.6875 C4.381875 13.460625 3.70125 13.23375 3 13 C1.66826279 12.66034592 0.33511736 12.32611426 -1 12 C-1.22162329 10.37675914 -1.42689803 8.751279 -1.625 7.125 C-1.74101562 6.22007813 -1.85703125 5.31515625 -1.9765625 4.3828125 C-1.98429688 3.59648438 -1.99203125 2.81015625 -2 2 C-1.34 1.34 -0.68 0.68 0 0 Z " fill="#D5F2FF" transform="translate(132,78)"/>
<path d="M0 0 C1.4540625 0.0309375 1.4540625 0.0309375 2.9375 0.0625 C2.298125 0.31 1.65875 0.5575 1 0.8125 C-1.19013413 1.84983352 -1.19013413 1.84983352 -1.73046875 3.83203125 C-2.11188486 6.39425003 -1.83905223 8.44502549 -1.4375 11 C-1.057665 14.38353017 -1.01019323 15.91720342 -2.1875 19.1875 C-4.0625 21.0625 -4.0625 21.0625 -6.75 21.375 C-7.513125 21.271875 -8.27625 21.16875 -9.0625 21.0625 C-8.24265625 20.39734375 -7.4228125 19.7321875 -6.578125 19.046875 C-3.49075396 15.38421744 -3.49702604 12.86058292 -3.8125 8.3125 C-3.92177174 5.89486281 -4.00348098 3.48227982 -4.0625 1.0625 C-3.0625 0.0625 -3.0625 0.0625 0 0 Z " fill="#C1ECFF" transform="translate(50.0625,61.9375)"/>
<path d="M0 0 C0.99 0.33 1.98 0.66 3 1 C3 3.31 3 5.62 3 8 C5.31 8.33 7.62 8.66 10 9 C9.67 9.99 9.34 10.98 9 12 C6.08264362 11.68461012 4.42948813 11.39881041 2.25 9.375 C0.62780937 6.29283781 0.3310304 3.44271613 0 0 Z " fill="#C6EEFF" transform="translate(53,90)"/>
<path d="M0 0 C0.99 0 1.98 0 3 0 C4.125 4.75 4.125 4.75 3 7 C1.35 6.67 -0.3 6.34 -2 6 C-1.125 1.125 -1.125 1.125 0 0 Z " fill="#68D1FE" transform="translate(120,30)"/>
<path d="M0 0 C0.99 0.33 1.98 0.66 3 1 C3.38218767 2.65614657 3.71395102 4.32457024 4 6 C3.67 6.33 3.34 6.66 3 7 C1.1875 6.94921875 1.1875 6.94921875 -1 6.6875 C-1.721875 6.60886719 -2.44375 6.53023437 -3.1875 6.44921875 C-3.785625 6.30097656 -4.38375 6.15273437 -5 6 C-5.33 5.34 -5.66 4.68 -6 4 C-3.69 4 -1.38 4 1 4 C0.67 2.68 0.34 1.36 0 0 Z " fill="#54D7FE" transform="translate(21,137)"/>
<path d="M0 0 C0.66 0.66 1.32 1.32 2 2 C1.01 3.32 0.02 4.64 -1 6 C-2.65 5.67 -4.3 5.34 -6 5 C-5.67 3.68 -5.34 2.36 -5 1 C-2.625 0.375 -2.625 0.375 0 0 Z " fill="#FAFDFF" transform="translate(47,83)"/>
<path d="M0 0 C4.29 0 8.58 0 13 0 C13 0.33 13 0.66 13 1 C12.31292969 1.00257812 11.62585938 1.00515625 10.91796875 1.0078125 C8.1597464 1.12619114 5.67734829 1.31449537 3 2 C0.76113268 4.88679844 0.76113268 4.88679844 0 8 C-0.33 8 -0.66 8 -1 8 C-1.125 2.25 -1.125 2.25 0 0 Z " fill="#BDEBFF" transform="translate(64,90)"/>
<path d="M0 0 C1.04449911 3.13349732 0.93423645 3.98968256 0 7 C-0.66 7 -1.32 7 -2 7 C-2.33 8.98 -2.66 10.96 -3 13 C-4.125 11.3125 -4.125 11.3125 -5 9 C-3.90283892 5.45532574 -2.62669218 2.62669218 0 0 Z " fill="#1CBBFE" transform="translate(98,35)"/>
<path d="M0 0 C0.9796875 -0.01417969 1.959375 -0.02835937 2.96875 -0.04296875 C5.5 0.1875 5.5 0.1875 7.5 2.1875 C6.66855469 2.15269531 5.83710937 2.11789063 4.98046875 2.08203125 C3.89378906 2.05496094 2.80710937 2.02789062 1.6875 2 C0.60855469 1.96519531 -0.47039062 1.93039063 -1.58203125 1.89453125 C-4.84961576 2.22260198 -5.47266159 2.75085667 -7.5 5.1875 C-8.16 5.1875 -8.82 5.1875 -9.5 5.1875 C-7.23004304 0.16116674 -5.37699466 0.03537496 0 0 Z " fill="#1675C3" transform="translate(75.5,116.8125)"/>
<path d="M0 0 C0.66 0 1.32 0 2 0 C2.33 1.65 2.66 3.3 3 5 C5.97 5.495 5.97 5.495 9 6 C8.67 6.66 8.34 7.32 8 8 C5.33333333 7.33333333 2.66666667 6.66666667 0 6 C0 4.02 0 2.04 0 0 Z " fill="#C2EDFF" transform="translate(131,84)"/>
<path d="M0 0 C0.7425 0.53625 1.485 1.0725 2.25 1.625 C3.1575 2.07875 4.065 2.5325 5 3 C7.15017528 2.25827123 7.15017528 2.25827123 9 1 C9.99 1 10.98 1 12 1 C10.4375 3.0625 10.4375 3.0625 8 5 C4.25 4.75 4.25 4.75 1 4 C0.67 2.68 0.34 1.36 0 0 Z " fill="#C0ECFF" transform="translate(55,65)"/>
<path d="M0 0 C2.33944736 0.28730055 4.6739143 0.61936779 7 1 C6.01 1.495 6.01 1.495 5 2 C3.86649466 4.01669827 3.86649466 4.01669827 3 6 C2.01 5.67 1.02 5.34 0 5 C-0.75 3 -0.75 3 -1 1 C-0.67 0.67 -0.34 0.34 0 0 Z " fill="#1DBBFE" transform="translate(99,43)"/>
<path d="M0 0 C1.5 1.25 1.5 1.25 3 3 C3 4.32 3 5.64 3 7 C1.02 7 -0.96 7 -3 7 C-3.33 6.34 -3.66 5.68 -4 5 C-2.68 5 -1.36 5 0 5 C0 3.35 0 1.7 0 0 Z " fill="#30C7FD" transform="translate(33,132)"/>
<path d="M0 0 C2.875 -0.125 2.875 -0.125 6 0 C6.66 0.66 7.32 1.32 8 2 C7.625 5.125 7.625 5.125 7 8 C5.79371992 5.66785852 4.8345262 3.50357861 4 1 C2.35 1.33 0.7 1.66 -1 2 C-0.67 1.34 -0.34 0.68 0 0 Z " fill="#B3E8FF" transform="translate(69,63)"/>
<path d="M0 0 C-1.09445838 0.86657116 -2.20097781 1.71792724 -3.3125 2.5625 C-3.92738281 3.03816406 -4.54226562 3.51382813 -5.17578125 4.00390625 C-5.77777344 4.33261719 -6.37976563 4.66132812 -7 5 C-7.99 4.67 -8.98 4.34 -10 4 C-4.7704918 -1.59016393 -4.7704918 -1.59016393 0 0 Z " fill="#E9F8FF" transform="translate(73,65)"/>
<path d="M0 0 C0.78375 0.04125 1.5675 0.0825 2.375 0.125 C2.705 0.785 3.035 1.445 3.375 2.125 C1.725 1.795 0.075 1.465 -1.625 1.125 C-1.955 4.095 -2.285 7.065 -2.625 10.125 C-2.955 10.125 -3.285 10.125 -3.625 10.125 C-4.6015625 4.0703125 -4.6015625 4.0703125 -4.625 2.125 C-2.625 0.125 -2.625 0.125 0 0 Z " fill="#DEF5FF" transform="translate(51.625,62.875)"/>
<path d="M0 0 C1.32 0 2.64 0 4 0 C4 1.65 4 3.3 4 5 C2.02 5.33 0.04 5.66 -2 6 C-2 5.34 -2 4.68 -2 4 C-1.34 3.67 -0.68 3.34 0 3 C0 2.01 0 1.02 0 0 Z " fill="#22BCFE" transform="translate(121,38)"/>
<path d="M0 0 C1.125 3.75 1.125 3.75 0 6 C-4.75 5.125 -4.75 5.125 -7 4 C-6.67 3.34 -6.34 2.68 -6 2 C-3.03 2.495 -3.03 2.495 0 3 C0 2.01 0 1.02 0 0 Z " fill="#5ADAFE" transform="translate(36,136)"/>
<path d="M0 0 C1.5 1.3125 1.5 1.3125 3 3 C3 3.99 3 4.98 3 6 C0.69 6 -1.62 6 -4 6 C-4.33 5.34 -4.66 4.68 -5 4 C-3.35 4 -1.7 4 0 4 C0 2.68 0 1.36 0 0 Z " fill="#32C8FD" transform="translate(19,135)"/>
<path d="M0 0 C1.4540625 0.0309375 1.4540625 0.0309375 2.9375 0.0625 C2.31875 0.248125 1.7 0.43375 1.0625 0.625 C-2.11852866 2.77687233 -2.25701947 5.43783763 -3.0625 9.0625 C-3.3925 9.0625 -3.7225 9.0625 -4.0625 9.0625 C-4.16015625 2.91015625 -4.16015625 2.91015625 -4.0625 1.0625 C-3.0625 0.0625 -3.0625 0.0625 0 0 Z " fill="#93DFFF" transform="translate(50.0625,61.9375)"/>
</svg>
